<?xml version="1.0" encoding="utf-8"?>
<!-- Generator: Adobe Illustrator 24.0.1, SVG Export Plug-In . SVG Version: 6.00 Build 0)  -->
<svg version="1.1" id="Layer_1" xmlns="http://www.w3.org/2000/svg" xmlns:xlink="http://www.w3.org/1999/xlink" x="0px" y="0px"
	 viewBox="0 0 201.8 261.9" style="enable-background:new 0 0 201.8 261.9;" xml:space="preserve">
<style type="text/css">
	.st0{fill:#FFFFFF;}
	.st1{fill:#002856;}
	.st2{fill:#B0B3B2;}
	.st3{fill:#CE0E2D;}
	.st4{fill:#FFC629;}
	.st5{fill:#3DAE2B;}
	.st6{fill:#C1531B;}
</style>
<g>
	<g>
		<g>
			<g>
				<g>
					<g>
						<path class="st0" d="M100.9,259.9C46.3,259.9,2,215.5,2,161c0-27.2,11.4-53.5,31.4-72.2l1.1-1.1l-0.7-1.3
							c-5-9.3-5.3-16-5.3-17.8l0-1.2c0.1-6.8,2.8-12,4.9-15.2c2.2-3.2,4.3-5,5.1-5.6c4.1-3.4,9.3-5.1,15.2-5.1
							c7.9,0,14.6,2.9,16.5,3.8c4.5,2,8,2.5,10.2,2.6l1.5,0l0.5-1.4c1.1-3.2,2.9-6,5.5-8.3l6.4-5.7l-13.5,3.8l0.8-5.2l0.6-3
							c1-5.2,4.4-9.8,9.9-13.2c0.9-0.6,1.8-1.1,2.8-1.6l1.1-0.5V1.2l5.9,0.8c2.5,0.3,4.8,1.1,6.8,2.2c1,0.6,2,1.3,2.9,2.1
							c0.7,0.6,1.2,1.2,1.7,2.1l0.1,0.1l0.1,0.1c1.2,2.3,1.2,4.6,1.1,6.5c0,0.3,0,0.6-0.1,1c0,0.5-0.1,1-0.1,1.5l0,1.4l1.7,0.6
							c0.6,0.2,1.1,0.4,1.6,0.7c2.5,1.7,4.4,3.9,5.5,6.3c0.5,1,0.8,2.1,1,3.1c0.2,0.9,0.3,1.8,0.3,2.6v0.4c0,0.5,0,0.9-0.1,1.3
							l-0.1,0.9c-0.1,0.3-0.1,0.7-0.2,1.1c-0.2,0.8-0.4,1.5-0.6,2.2c-0.5,1.2-1.2,2.4-2,3.5c-0.7,0.9-1.4,1.6-2.3,2.2l-3.5,2.5
							l4.2,1.1c0.6,0.2,1.2,0.2,1.8,0.2c1.2,0,2.4-0.2,3.4-0.4c2.5-0.5,4.6-1.2,6.4-2.1c0.1,0,0.3-0.1,0.3-0.1l0.1-0.1
							c0.1-0.1,1-0.4,1-0.4c1.3-0.5,2.5-0.9,3.7-1.3c4-1.2,7.9-1.9,11.5-1.9c5.9,0,11.1,1.7,15.1,5c0.1,0.1,0.2,0.2,0.3,0.2l0.3,0.3
							c0.4,0.3,0.8,0.7,1.2,1.2c1.2,1.2,2.4,2.6,3.4,4.1c2.1,3,4.6,7.9,4.9,14.3l0,0.4l0,0.1v1.3c0,0.1,0,0.2,0,0.3
							c0,1.9-0.4,8.6-5.3,17.8l-0.7,1.3l1.1,1.1c19.9,18.7,31.4,45,31.4,72.2C199.8,215.5,155.4,259.9,100.9,259.9z"/>
						<path class="st0" d="M97.9,3.5l1.4,0.2l2.2,0.3c2.2,0.3,4.3,1,6.1,2c0.9,0.5,1.8,1.2,2.6,1.9c0.5,0.4,0.8,0.8,1.3,1.7l0,0l0,0
							c1,1.8,0.9,3.8,0.9,5.5c0,0.3,0,0.6-0.1,0.9c0,0.5-0.1,1-0.1,1.6l0,2.8l2.6,1l0.4,0.2c0.5,0.2,0.9,0.3,1.1,0.5
							c2.2,1.5,3.8,3.4,4.8,5.5c0.4,0.8,0.6,1.7,0.8,2.6l0,0l0,0c0.2,0.8,0.2,1.5,0.3,2.3v0.1v0.1v0.2c0,0.4,0,0.8-0.1,1.1v0v0
							l0,0.3c0,0.2,0,0.3-0.1,0.5c0,0.3-0.1,0.6-0.2,1c-0.1,0.7-0.3,1.3-0.6,1.8c-0.4,1.1-1,2.1-1.8,3.1c-0.6,0.7-1.1,1.3-1.9,1.8
							l-7,5l8.3,2.2c0.7,0.2,1.5,0.3,2.3,0.3c1.4,0,2.7-0.3,3.8-0.5l0.1,0c2.6-0.5,4.9-1.3,6.9-2.2c0.1,0,0.1-0.1,0.1-0.1l0.1,0
							l0.1,0l0,0c0.1,0,0.3-0.1,0.5-0.2c0.1-0.1,0.3-0.1,0.5-0.2l0,0l0,0c1.1-0.5,2.3-0.9,3.4-1.2c3.8-1.2,7.5-1.8,10.9-1.8
							c5.4,0,10.2,1.6,13.8,4.5l0.1,0.1l0.1,0c0,0,0.1,0.1,0.1,0.1l0.1,0.1l0.1,0c0.1,0.1,0.1,0.1,0.2,0.2c0.2,0.2,0.6,0.5,1.1,1.1
							c1.1,1.2,2.2,2.4,3.1,3.8c1.9,2.8,4.2,7.3,4.5,13.3l0,0.8l0,0v0.3v0.6v0v0c0,0.1,0,0.1,0,0.2v0v0c0,1.7-0.4,8.1-5.1,16.8
							l-1.5,2.7l2.2,2.1c9.6,9,17.2,19.6,22.5,31.6c5.5,12.4,8.3,25.6,8.3,39.2c0,53.4-43.5,96.9-96.9,96.9S4,214.4,4,160.9
							c0-13.6,2.8-26.8,8.3-39.2c5.3-11.9,12.9-22.6,22.5-31.6l2.2-2.1l-1.5-2.7c-4.7-8.8-5.1-15.1-5.1-16.9v-0.3v-0.2l0-0.7
							C30.6,61,33,56.2,35,53.2c2-2.9,4-4.6,4.7-5.2l0,0l0,0c3.7-3,8.5-4.7,14-4.7c7.4,0,13.9,2.7,15.7,3.6l0,0l0,0
							c4.8,2.2,8.6,2.7,10.9,2.7l3,0.1l0.9-2.8c0.9-2.8,2.6-5.4,4.9-7.4L102,27.9l-16.6,4.7L85,32.7l-1.9,0.5l0.3-2l0.6-3
							c0.9-4.6,4-8.7,9-11.9c0.8-0.5,1.7-1,2.6-1.5l2.2-1.1v-2.5V4.9L97.9,3.5 M93.9-1.1v6v6.4C93,11.8,92,12.3,91,13
							c-6,3.8-9.8,8.8-10.9,14.5l-0.6,3.1l-1.2,8.2l7.8-2.2l0.4-0.1c-2.8,2.5-4.8,5.6-6,9.2c-1.8,0-5.1-0.4-9.4-2.4
							c-2-0.9-9.1-3.9-17.3-3.9h-0.1c-6.4,0-12.1,1.9-16.5,5.6c-0.9,0.7-3.2,2.7-5.5,6.1c-2.4,3.4-5.1,9-5.3,16.3l0,0.7v0.2v0.3
							c0,2.1,0.4,9.2,5.5,18.8C12.3,105.8,0,132,0,161c0,55.6,45.2,100.9,100.9,100.9c55.6,0,100.9-45.2,100.9-100.9
							c0-29-12.3-55.2-32-73.7c5-9.4,5.5-16.4,5.5-18.7c0-0.1,0-0.3,0-0.4v-0.6v-1.2l-0.1-0.1c-0.4-6.8-3-12.1-5.2-15.3
							c-1.1-1.6-2.3-3.1-3.6-4.4c-0.5-0.5-1-0.9-1.4-1.3c-0.1-0.1-0.2-0.2-0.3-0.2c-0.1-0.1-0.2-0.2-0.4-0.3
							c-4.4-3.5-10-5.4-16.4-5.4h0c-3.8,0-7.9,0.7-12.1,2c-1.3,0.4-2.5,0.8-3.8,1.3l-0.1,0l-0.1,0c-0.2,0.1-0.4,0.2-0.5,0.2
							c-0.2,0.1-0.4,0.2-0.5,0.2l-0.1,0l-0.1,0c-0.1,0-0.2,0.1-0.3,0.2c-1.8,0.9-3.9,1.5-5.9,1.9c-0.9,0.2-2,0.4-3,0.4
							c-0.4,0-0.9,0-1.3-0.2c1.1-0.8,1.9-1.6,2.7-2.7c1-1.3,1.7-2.6,2.3-4c0.3-0.8,0.6-1.6,0.8-2.5c0.1-0.4,0.2-0.9,0.2-1.2
							c0-0.2,0.1-0.3,0.1-0.5l0-0.3l0,0l0-0.1c0.1-0.4,0.1-1,0.1-1.6v-0.2v-0.1l0-0.2c0-0.9-0.2-1.9-0.4-2.9
							c-0.2-1.2-0.6-2.4-1.1-3.5l0,0l0,0c-1.3-2.8-3.4-5.3-6.2-7.2c-0.7-0.5-1.6-0.7-2.4-1c0-0.8,0.1-1.6,0.1-2.4
							c0-2,0.1-4.7-1.4-7.5l-0.1-0.2L115,7.3c-0.6-1-1.2-1.7-2.1-2.5c-1-0.9-2.1-1.7-3.3-2.4c-2.3-1.3-4.9-2.1-7.6-2.5l-2.2-0.3
							L93.9-1.1L93.9-1.1z"/>
					</g>
					<g>
						<g>
							<g>
								<g>
									<path class="st1" d="M121.2,32.4c0-0.7-0.1-1.4-0.3-2.1c-0.1-0.8-0.4-1.6-0.7-2.4c-0.9-2.1-2.5-3.8-4.4-5
										c-2.4-1.7-4.8-2.2-4.9-2.3c0.2-0.7,0.3-1.4,0.3-2.3c0-0.8,0-1.6,0-2.3c0-2,0.2-4.1-0.7-5.9l-0.6-0.9
										c-0.1-0.1-0.1-0.2-0.2-0.2c-1.4-1.7-4-3.2-8.4-3.8l-2.2-0.3v9.8c-1.3,0.5-3.3,1.4-5.4,2.7c-3.5,2.2-7.4,5.7-8.5,11.1
										l-0.6,3.1l8.4-2.3c-0.8,2.7-0.9,5.1-0.9,6.7c0,1.2,0.1,2,0.1,2.1l0.4,2.5l2.3-1.1c0.5-0.2,1.7-0.6,2.7-0.7
										c0.5-0.1,1-0.2,1.3-0.2c0.2,0,0.3,0,0.4-0.1c0.1,0,0.1,0,0.1,0l0.4,0l1.2,0.2c1.8,0.2,3.5,0.6,4.8,1
										c0.6,0.2,1.1,0.3,1.4,0.5c0.3,0.1,0.4,0.2,0.5,0.2c0,0,0,0,0.1,0l0.3,0.1l0.9,0.7l0.1,0c0.1,0.1,0.4,0.3,0.7,0.6
										c0.5,0.4,1.1,1.1,1.6,1.7l1,1.3l1.5-0.8c0,0,0-0.1,0.1-0.1c0.1,0,0.1-0.1,0.2-0.1c0.3-0.2,0.6-0.3,0.8-0.5
										c1.4-0.9,2.6-2.1,3.6-3.4c0.6-0.8,1.2-1.8,1.6-2.8c0.2-0.5,0.4-1.1,0.5-1.6c0.1-0.3,0.1-0.6,0.2-0.9c0-0.3,0.1-0.5,0.1-0.8
										c0-0.3,0.1-0.6,0.1-1C121.2,32.6,121.2,32.5,121.2,32.4z"/>
									<g>
										<path class="st2" d="M94.2,37.7c1.6-0.7,5.1-1.2,5.1-1.2c1.7-6.8,5-10.7,5-10.7l-9,2.8C93.6,33.7,94.2,37.7,94.2,37.7z"/>
										<path class="st2" d="M101.3,36.6c4,0.4,7.2,1.7,7.2,1.7c3.7-6.1,10.7-6.3,10.7-6.3c-0.2-7.4-8.7-9.5-8.7-9.5
											C103.1,28.2,101.3,36.6,101.3,36.6z"/>
										<path class="st2" d="M110.3,39.4c0,0,1.6,1.2,2.8,2.7c0,0,5.8-3.2,6.1-8.2C119.2,33.9,113.8,33.9,110.3,39.4z"/>
										<path class="st0" d="M109.3,18.3v-5.6c0,0,0.1-4.5-8.2-5.6v9c0,0-12.3,3.7-13.9,12.7l18.6-5.2
											C105.8,23.6,109.3,22.8,109.3,18.3z"/>
									</g>
									<g>
										<path class="st1" d="M114.6,52.2c0,7.6-6.1,13.7-13.7,13.7s-13.7-6.1-13.7-13.7s6.2-13.7,13.7-13.7
											C108.5,38.5,114.6,44.6,114.6,52.2z"/>
										<path class="st1" d="M84.7,52.4c0-8.9,7.2-16.1,16.2-16.1l0,0c8.9,0,16.2,7.2,16.2,16.1l0,0c0,8.9-7.3,16.1-16.2,16.1l0,0
											C91.9,68.4,84.7,61.2,84.7,52.4L84.7,52.4z M89.2,52.4c0,6.4,5.2,11.5,11.6,11.5l0,0c6.4,0,11.6-5.2,11.6-11.5l0,0
											c0-6.4-5.2-11.5-11.6-11.5l0,0C94.4,40.8,89.2,46,89.2,52.4L89.2,52.4z"/>
									</g>
									<path class="st3" d="M46.4,135.6L46.4,135.6l0,50.7h0.2l-0.2,0.1c3,6.3,7,12.1,11.9,17l0.3,0.3v-85.4l-0.3,0.3
										C53.4,123.5,49.4,129.3,46.4,135.6z M70.6,212.9L70.6,212.9c3.8,2.2,7.8,4,11.9,5.3l0.2,0.1V114H70.6V212.9z M94.8,220.8
										l0.2,0c2,0.2,3.9,0.3,5.9,0.3c2,0,4-0.1,5.9-0.3l0.2,0V114H94.8C94.8,114,94.8,220.8,94.8,220.8z M119,218.3l0.2-0.1
										c4.2-1.3,8.1-3.1,11.9-5.3l0.1-0.1V114H119V218.3z M155.3,135.6c-3-6.4-7-12.1-11.9-17l-0.3-0.3v85.4l0.3-0.3
										c4.9-4.9,8.9-10.6,11.9-17V135.6L155.3,135.6z"/>
									<g>
										<path class="st1" d="M122.5,81.2l-0.3,0.1l-21.3,8.3l-21.7-8.4H59.8l3.1,3.3c0,0,0,0,0.1,0.1c0.7,0.8,3.8,4.8,3.8,10.2
											v52.3c0,2.9,0.7,5.6,1.8,8.1c2.7,5.9,7.7,10.8,13,14.8c4.3,3.2,8.8,5.8,12.4,7.6c3.3,1.7,5.3,2.5,6.1,2.9l0.7,0.3l0.7-0.3
											c0.8-0.3,2.8-1.2,6.1-2.9c3.6-1.8,8.1-4.4,12.4-7.6c5.3-4,10.3-8.9,13-14.8c1.1-2.5,1.8-5.2,1.8-8.1V94.9
											c0-3.1,1-5.7,2-7.6c0.5-0.9,1-1.7,1.4-2.1c0.2-0.2,0.3-0.4,0.4-0.5c0.1-0.1,0.1-0.1,0.1-0.1l3.1-3.3L122.5,81.2
											L122.5,81.2z"/>
										<path class="st1" d="M100.8,181.2l-0.7-0.3c-0.8-0.3-2.9-1.2-6.2-2.9l0,0c-3.6-1.8-8.1-4.4-12.4-7.7l0,0
											c-5.3-4-10.4-8.9-13.1-14.9l0,0c-1.1-2.6-1.8-5.3-1.8-8.2l0,0V94.9c0-0.1,0-0.1,0-0.1l0,0c0-5.2-3-9.2-3.7-10l0,0
											c-0.1-0.1-0.1-0.1-0.1-0.1l0,0l-3.6-3.8h20.2l21.6,8.4l21.2-8.3l0.4-0.1l0.1,0h20.2l-3.6,3.8c0,0,0,0-0.1,0.1l0,0
											c-0.1,0.1-0.2,0.3-0.4,0.5l0,0c-0.4,0.5-0.9,1.2-1.3,2.1l0,0c-1,1.8-1.9,4.3-2,7.3l0,0l0,0v52.4c0,2.9-0.7,5.7-1.8,8.2
											l0,0c-2.7,6-7.8,10.9-13.1,14.9l0,0c-4.4,3.2-8.9,5.8-12.4,7.7l0,0c-3.3,1.7-5.3,2.6-6.2,2.9l0,0l-0.8,0.3L100.8,181.2
											L100.8,181.2z M63.1,84.3c0,0,0,0,0.1,0.2l0,0c0.7,0.8,3.8,4.9,3.8,10.4l0,0c0,0,0,0,0,0.1l0,0v52.3c0,2.8,0.7,5.5,1.8,8
											l0,0c2.6,5.8,7.6,10.7,12.9,14.7l0,0c4.3,3.2,8.8,5.8,12.4,7.6l0,0c3.3,1.7,5.3,2.5,6.1,2.9l0,0l0.6,0.2l0.6-0.2
											c0.8-0.3,2.8-1.2,6.1-2.9l0,0c3.6-1.8,8-4.4,12.4-7.6l0,0c5.3-3.9,10.3-8.8,12.9-14.7l0,0c1.1-2.5,1.8-5.1,1.8-8l0,0V94.9
											l0,0c0,0,0,0,0,0l0,0c0-3.2,1-5.8,2-7.7l0,0c0.5-0.9,1-1.7,1.4-2.2l0,0c0.2-0.2,0.3-0.4,0.4-0.6l0,0
											c0.1-0.1,0.1-0.2,0.1-0.2l0,0l2.6-2.7h-18.6l-0.3,0.1L100.9,90l-21.7-8.5H60.6L63.1,84.3L63.1,84.3z M122.5,81.6v-0.3
											V81.6L122.5,81.6z"/>
									</g>
									<path class="st1" d="M100.9,98.3c-34.6,0-62.7,28.1-62.7,62.7c0,34.6,28.1,62.7,62.7,62.7s62.7-28.1,62.7-62.7
										C163.6,126.4,135.5,98.3,100.9,98.3z M100.9,219.7c-32.4,0-58.8-26.3-58.8-58.8s26.3-58.8,58.8-58.8
										c32.4,0,58.7,26.3,58.7,58.8S133.3,219.7,100.9,219.7z M100.9,65.4c-52.8,0-95.6,42.8-95.6,95.6
										c0,52.8,42.8,95.6,95.6,95.6c52.8,0,95.6-42.8,95.6-95.6C196.5,108.2,153.7,65.4,100.9,65.4z M100.9,252.4
										c-50.5,0-91.4-40.9-91.4-91.4s40.9-91.4,91.4-91.4s91.4,40.9,91.4,91.4C192.3,211.5,151.4,252.4,100.9,252.4z M100.9,71.7
										c-49.3,0-89.3,40-89.3,89.3s40,89.3,89.3,89.3c49.3,0,89.3-40,89.3-89.3S150.2,71.7,100.9,71.7z M100.9,225.9
										C65,225.9,36,196.8,36,161s29-64.9,64.9-64.9c35.8,0,64.9,29.1,64.9,64.9S136.7,225.9,100.9,225.9z"/>
									<path class="st1" d="M122.9,143.7c0,15.9-22.1,21.5-22.1,21.5s-22.1-5.6-22.1-21.5c0-2.4,0-50.8,0-50.8h44.1
										C122.9,92.8,122.9,141.2,122.9,143.7z"/>
									<path class="st4" d="M121.1,125.7c0,0-2.3,0.9-1.2,3.3c0,0-1.2,2-0.7,5.3c0,0,0.6,4.1-1.1,6.4c0,0-1.6,0.2-3.8-5
										c0.5,0.4,1.2,0,1.2,0c-0.1-0.9,0.9-0.8,0.9-0.8c-0.3-0.9,0.6-0.9,0.6-0.9c-0.6-1.2,0.1-1.2,0.1-1.2l-0.4-0.8
										c-0.3-0.8,0.4-1,0.4-1s0.3-2.2-1.2-2.9c-1.5-0.7-1.6-2.1-1.6-2.1l-6.9,2.7l0.6,1.6c0,0,2.3-2.1,2.7,0.1c0,0,0.1,2-2.2,0.9
										l-0.1,0.9c0,0,2.1,0.9,1.2,2.2c0,0-2.7,1.2-6.2-5.7h-0.6v2.9c0,0,1.3,0.2,2.5,1.5l2.3,2.8l1.6,0.2c0,0-1.6,1.3-2.7,0.4
										l-3.1-3.4h-0.5v2.3c0,0,2-0.2,4.3,3.6h2.1c0,0-0.1,2.4,3,4l-3.6,2.3c0,0-1.1,0.9-2.1,0.1l-3.2-2.5h-0.6v1.2l5.2,3.5
										c0,0,1.4,0.3,2.9-1.5c0,0,1.3-1,3.4-1c0,0-0.4,1.3,1.4,2.4c0,0-0.3,1.1-0.4,2.4c0,0,0,1.1-2.2,1.2c0,0-1.3-0.2-1.7,1h3.7
										l4-4.1c0,0,0.3-1.1-0.6-1.9c0,0,1.5-1.5,0.8-3.9c0,0,2.1-2.9,0.6-8.1c0,0-0.9-2.8,0.9-4.8
										C120.8,129.2,122,127.8,121.1,125.7z M92.2,134.3c-0.9-1.3,1.2-2.2,1.2-2.2l-0.1-0.9c-2.4,1.1-2.2-0.9-2.2-0.9
										c0.4-2.3,2.7-0.1,2.7-0.1l0.6-1.6l-6.9-2.7c0,0-0.1,1.4-1.6,2.1c-1.5,0.7-1.2,2.9-1.2,2.9s0.7,0.2,0.3,1l-0.3,0.8
										c0,0,0.8,0,0.1,1.2c0,0,0.9,0,0.6,0.9c0,0,1-0.1,0.9,0.8c0,0,0.6,0.4,1.2,0c-2.1,5.2-3.8,5-3.8,5c-1.7-2.2-1.1-6.4-1.1-6.4
										c0.5-3.4-0.7-5.3-0.7-5.3c1.1-2.4-1.2-3.3-1.2-3.3c-0.9,2.1,0.3,3.5,0.3,3.5c1.8,2,0.9,4.8,0.9,4.8
										c-1.5,5.2,0.6,8.1,0.6,8.1c-0.7,2.5,0.8,3.9,0.8,3.9c-0.9,0.8-0.7,1.9-0.7,1.9l4,4.1h3.7c-0.4-1.2-1.7-1-1.7-1
										c-2.2-0.1-2.2-1.2-2.2-1.2c-0.2-1.2-0.4-2.4-0.4-2.4c1.7-1.1,1.4-2.4,1.4-2.4c2.1,0,3.4,1,3.4,1c1.6,1.8,2.9,1.5,2.9,1.5
										l5.2-3.5v-1.2h-0.7l-3.2,2.5c-1,0.8-2.1-0.1-2.1-0.1l-3.5-2.3c3.1-1.5,3-4,3-4h2.1c2.4-3.8,4.3-3.6,4.3-3.6v-2.3h-0.5
										l-3.1,3.4c-1.1,0.9-2.7-0.4-2.7-0.4l1.5-0.2l2.3-2.8c1.2-1.2,2.5-1.5,2.5-1.5v-2.9h-0.6C94.9,135.5,92.2,134.3,92.2,134.3z
										"/>
									<path class="st3" d="M100.9,156.2"/>
									<path class="st5" d="M100.9,99.4c-8.7,0-15.8,5.1-15.8,11.4c0,6.3,7.1,11.4,15.8,11.4c8.7,0,15.8-5.1,15.8-11.4
										C116.7,104.5,109.6,99.4,100.9,99.4z"/>
									<path class="st1" d="M75,81.1l4.3-2.3c1.5-0.8,3-1.1,4.3-1.1l0,0l0.2-1.2c1-4.4,4.4-6.8,5.6-7.6l0,0
										c-0.1-0.4-0.2-0.8-0.2-1.1l0,0c0.2-2.9,2.2-3.8,2.2-3.9l0,0l1.3-0.9l1.3,0.8c2.4,1.6,5.2,2.1,6.4,2.2l0,0
										c0.2,0,0.4,0,0.5,0l0,0c0.1,0,0.2,0,0.5,0l0,0c0.4,0,0.9-0.1,1.6-0.3l0,0c1.4-0.3,3.1-0.9,4.7-2l0,0L109,63l1.3,0.9
										c0.1,0.2,2,1.1,2.2,3.9l0,0c0,0.3,0,0.7-0.1,1.1l0,0c1.1,0.7,4.6,3.2,5.6,7.6l0,0l-2.2,0.4l2.2-0.4l0.2,1.2
										c1.3,0.1,2.9,0.3,4.3,1.1l0,0l4.3,2.3l-25.9,10.4L75,81.1L75,81.1z M100.9,86.7l0.5-0.2c-0.2,0-0.3,0-0.3,0l0,0l-0.2,0
										l-0.2,0c0,0-0.1,0-0.3,0l0,0L100.9,86.7L100.9,86.7z M112.9,75.8c-0.7-1.2-1.8-2.2-2.5-2.8l0,0c-2.6,0.8-5.9,2.9-7.3,4l0,0
										c-0.5,0.4-0.8,0.6-0.8,0.6l0,0l-1.4,1.1l-1.4-1.1c0,0-0.3-0.2-0.8-0.6l0,0c-0.5-0.4-1.3-0.9-2.2-1.5l0,0
										c-1.5-0.9-3.4-2-5.1-2.5l0,0c-0.3,0.2-0.6,0.5-1,0.8l0,0c-0.6,0.5-1.1,1.2-1.5,1.9l0,0c0.8,0.4,1.9,0.9,3.1,1.4l0,0
										c2.8,1.1,6.3,2.2,8.9,2.2l0,0C104.6,79.5,110.2,77.2,112.9,75.8L112.9,75.8z M100.9,68.4l0.1-2.3L100.9,68.4L100.9,68.4z"
										/>
									<path class="st2" d="M100.9,42.1L100.9,42.1c0.1,0.1,6.4,5.5,13.3,5.8c0,0-2.8-9-13.3-9s-13.3,9-13.3,9
										c6.9-0.3,13.2-5.7,13.2-5.7L100.9,42.1z M100.9,58.6c7.7-3.7,13.4-2.4,13.4-2.4c1-1.9,0.6-5.4,0.6-5.4
										c-8.6-0.6-14-5.5-14-5.5s-5.4,4.9-14,5.5c0,0-0.4,3.6,0.6,5.4C87.4,56.2,93.2,54.9,100.9,58.6z M113.2,58.2
										c0,0-8.1-0.3-12.4,3.8c-4.3-4.1-12.4-3.8-12.4-3.8s2.6,6.1,12.4,7.9C110.6,64.3,113.2,58.2,113.2,58.2z M100.9,68.4
										c0,0-4.2-0.1-8.1-2.7c0,0-1.7,1.2-1.2,2.7c0,0,5.8,2,9.3,4.5c3.4-2.6,9.3-4.5,9.3-4.5c0.5-1.5-1.2-2.7-1.2-2.7
										C105.1,68.3,100.9,68.4,100.9,68.4z M115.7,76.9c-0.8-3.9-4.8-6.3-4.8-6.3c-4.5,1-10,5.3-10,5.3s-5.4-4.3-10-5.3
										c0,0-4.1,2.4-4.8,6.3c0,0,8.5,4.8,14.8,4.8C107.2,81.7,115.7,76.9,115.7,76.9z M114,80.4c-6.7,3.3-13.1,3.8-13.1,3.8
										s-6.4-0.5-13.1-3.8c0,0-4.2-1.3-7.4,0.4l20.5,8.3l20.5-8.3C118.2,79.1,114,80.4,114,80.4z"/>
									<path class="st6" d="M102.3,145.3v-22.4h-2.8v22.4c0,3.2-3.3,9.3-3.3,9.3c1.6,1.1,3.2,1.6,4.7,1.6c1.4-0.1,3-0.5,4.7-1.6
										C105.5,154.6,102.3,148.5,102.3,145.3z"/>
									<path class="st4" d="M122.9,83.2l-22,8.6l-22-8.6H64.3c0,0,4.4,4.7,4.4,11.7v52.3c0,2.6,0.6,5,1.7,7.3
										c2.4,5.4,7.2,10.2,12.4,14c4.2,3.1,8.6,5.7,12.1,7.5c3.2,1.7,5.2,2.5,5.9,2.8c0.7-0.3,2.7-1.1,6-2.8
										c3.5-1.8,7.9-4.3,12.1-7.5c5.1-3.8,10-8.6,12.4-14c1-2.3,1.7-4.8,1.7-7.3V94.9c0-7,4.4-11.7,4.4-11.7
										S122.9,83.2,122.9,83.2z M122.9,143.7c0,15.9-22.1,21.5-22.1,21.5s-22.1-5.6-22.1-21.5c0-2.4,0-50.8,0-50.8h44.1
										C122.9,92.8,122.9,141.2,122.9,143.7z"/>
									<path class="st3" d="M131.4,116.9h-2.2l-1.2,1.9l-1.2-1.9h-2.3l2.3,3.2l-2.4,3.3h2.2l1.2-2l1.2,2h2.3l-2.4-3.3L131.4,116.9
										z M104.2,167.6H102l-1.1,1.9l-1.1-1.9h-2.2l2.3,3.2l-2.4,3.3h2.3l1.1-1.9l1.1,1.9h2.3l-2.4-3.3L104.2,167.6z M126.7,91.9
										l1.2-2l1.2,2h2.3l-2.4-3.3l2.3-3.2h-2.2l-1.2,1.9l-1.2-1.9h-2.3l2.3,3.2l-2.4,3.3H126.7z M129.9,148.4h-2.2l-1.2,1.9
										l-1.2-1.9h-2.3l2.3,3.2l-2.4,3.3h2.2l1.2-2l1.2,2h2.3l-2.4-3.3L129.9,148.4z M72.6,91.9l1.2-2l1.2,2h2.2l-2.4-3.3l2.3-3.2
										h-2.3l-1.2,1.9l-1.2-1.9h-2.2l2.3,3.2l-2.4,3.3H72.6z M78.6,148.4h-2.2l-1.2,1.9l-1.2-1.9h-2.2l2.3,3.2l-2.4,3.3h2.3l1.2-2
										l1.3,2h2.2l-2.4-3.3L78.6,148.4z M73.8,121.4l1.2,2h2.2l-2.4-3.3l2.3-3.2h-2.3l-1.2,1.9l-1.2-1.9h-2.2l2.3,3.2l-2.4,3.3
										h2.3L73.8,121.4z"/>
									<path class="st1" d="M170,68.3v-0.6l0-0.1c-0.1-5.9-2.2-10.5-4.4-13.6c-1.1-1.6-2.2-2.8-3-3.7c-0.4-0.4-0.8-0.8-1-1
										c-0.1-0.1-0.2-0.2-0.3-0.3c-0.1-0.1-0.1-0.1-0.1-0.1c-4-3.3-8.8-4.4-13.2-4.4c-4,0-7.8,0.9-10.5,1.7
										c-1.4,0.4-2.5,0.8-3.3,1.2c-0.4,0.2-0.7,0.3-0.9,0.4c-0.2,0.1-0.3,0.1-0.4,0.2c-5.5,2.4-9.7,2.8-11.9,2.8
										c-0.2,0-0.4,0-0.6,0l-2.8-0.1l0.6,2.8c0.4,2.2,1.7,3.7,2.6,4.5c-2.3,2.8-2.6,6.2-2.6,8.4l0,0.7l0,3.6l3.2-1.6
										c0.3-0.1,0.7-0.3,1.1-0.5c0,0.3,0,0.6,0,0.8c0,2,0.5,3.4,1.1,4.4l1.3,2.2l2-1.6c0.4-0.3,1.2-0.9,2-1.5
										c1.3,4.2,4.5,6.6,7.3,7.7c2.5,1,4.7,1.2,5.8,1.3c0.3,0.5,0.4,1.1,0.4,1.8c0,1.3-0.5,3-1.1,4.2l-1.9,4l4.3-0.8
										c1.8-0.3,3.6-1.1,4.8-2.6c1.8-2.2,2-4.7,2.1-6.3c0-0.5,0-0.9,0-1.2c5.3-3.9,6.1-8.8,6-10.7v-0.1l0-0.6v-0.1v0V69
										c0-3.2-1.4-5.7-3-7.3c-1.7-1.6-3.6-2.5-5.1-3l-3.9-1.3l0.9,4c0.1,0.5,0.2,1,0.2,1.3c0,0.7-0.1,1.2-0.4,1.7
										c-0.4,0.8-0.9,1.3-1.5,1.7c-0.3,0.2-0.6,0.3-0.7,0.4c-0.1,0-0.2,0.1-0.2,0.1c0,0,0,0,0,0c-0.4,0.1-0.8,0.1-1.2,0.1
										c-1.3,0-2.2-0.5-2.9-1.2c-0.7-0.7-1.2-1.7-1.4-2.3l0-0.1l0-0.1c-0.3-0.7-0.4-1.4-0.4-1.9c0-1.5,0.7-2.8,1.8-4
										c1.1-1.1,2.5-2,3.5-2.4l0,0c1.6-0.5,3-0.7,4.3-0.7c2.4,0,4.5,0.7,5.9,1.4c0.7,0.4,1.3,0.7,1.7,1c0.4,0.3,0.6,0.4,0.6,0.4
										c4.5,4.1,5.8,8.6,5.8,12.8c0,3.1-0.8,6.1-1.6,8.2c-0.4,1.1-0.8,1.9-1.1,2.6c-0.1,0.3-0.3,0.5-0.4,0.7
										c0,0.1-0.1,0.1-0.1,0.2c0,0,0,0,0,0l-12.2,19.5l0,0.1c-8.2,14.6-10.8,24.7-10.8,31.7c0,6.9,2.6,10.8,4.2,12.4l2.1,2
										l1.5-2.5c1.6-2.7,1.8-5.8,1.9-8.2c0-1,0-1.9-0.1-2.6c0,0,0-0.1,0-0.1c1.8-0.6,2.9-2.2,3.2-3.4c0.3-1,0.4-1.9,0.5-2.5
										c1.3-0.6,2.2-1.8,2.7-2.8c0.5-1.3,0.6-2.5,0.6-3.5c0-0.6,0-1.2-0.1-1.6c0-0.2,0-0.4-0.1-0.5v0l0-0.2
										c-0.3-1.3-0.4-2.6-0.4-3.7c0-2.9,0.6-5.5,1.3-7.3c0.4-0.9,0.7-1.7,1-2.2c0.1-0.3,0.2-0.4,0.3-0.6c0-0.1,0.1-0.1,0.1-0.1v0
										l0-0.1l10.1-16.3c6.7-10.5,7.1-18.2,7.1-20.1C170,68.5,170,68.4,170,68.3C170,68.3,170,68.3,170,68.3z M83.8,53.7l0.6-2.8
										L81.5,51c-0.2,0-0.4,0-0.6,0c-2.3,0-6.5-0.4-11.9-2.9l0,0c-0.9-0.4-7.5-3.4-15.1-3.5c-4.4,0-9.2,1-13.2,4.4
										c-0.5,0.4-2.4,2-4.5,5c-2.2,3.2-4.3,7.9-4.3,13.9c0,0.1,0,0.1,0,0.2l0,0v0.2v0c0,0.1,0,0.2,0,0.3c0,1.8,0.5,9.6,7.1,20.1
										l10,16.3l1.9-1.2l-1.9,1.2c0,0,2.8,4.4,2.7,10.3c0,1.2-0.1,2.4-0.4,3.7l0,0.2v0.1c-0.1,0.3-0.2,1.1-0.2,2.1
										c0,1,0.1,2.2,0.6,3.5c0.4,1.1,1.3,2.2,2.7,2.8c0,0.6,0.2,1.5,0.5,2.5c0.3,1.2,1.4,2.8,3.2,3.4c-0.1,0.6-0.1,1.5-0.1,2.6
										c0,2.4,0.3,5.4,1.8,8.2l1.5,2.5l2.1-2c1.7-1.6,4.3-5.5,4.3-12.4c0-7-2.5-17.1-10.8-31.7l0-0.1L44.6,81.2l0,0
										c-0.4-0.7-3.1-5.8-3.1-11.6c0-4.2,1.3-8.7,5.8-12.8l0-0.1l0.1,0.1c0.4-0.3,3.7-2.9,8.2-2.8c1.3,0,2.8,0.2,4.3,0.7
										c1,0.4,2.5,1.3,3.6,2.4c1.1,1.2,1.8,2.5,1.8,4c0,0.6-0.1,1.2-0.4,2l0,0.1v0.1c-0.2,0.6-0.7,1.6-1.4,2.3
										c-0.7,0.7-1.6,1.2-2.9,1.2c-0.4,0-0.8,0-1.3-0.2c-0.4-0.1-1.9-0.8-2.4-2.1c-0.2-0.5-0.4-1.1-0.4-1.7c0-0.4,0.1-0.8,0.2-1.3
										l0.9-4l-3.8,1.3c-1.5,0.5-3.4,1.4-5.1,3c-1.7,1.6-3.1,4.1-3.1,7.2v0.6l0,0.6v0v0c-0.1,1.9,0.7,6.9,6.1,10.7
										c0,0.3-0.1,0.7-0.1,1.2c0,1.6,0.2,4.2,2.1,6.4c1.2,1.4,3,2.3,4.8,2.6l4.3,0.8l-1.9-4c-0.6-1.2-1.2-2.9-1.1-4.2
										c0-0.7,0.1-1.3,0.4-1.8c1-0.1,3.3-0.2,5.8-1.3c2.8-1.1,6-3.5,7.3-7.7c0.8,0.6,1.5,1.2,1.9,1.5l2,1.6l1.3-2.2
										c0.6-0.9,1.1-2.4,1.1-4.4c0-0.3,0-0.6,0-0.8c0.4,0.2,0.8,0.4,1.1,0.5l3.2,1.6l0.1-4.2c0-2.3-0.3-5.7-2.6-8.5
										C82.1,57.4,83.3,55.9,83.8,53.7z"/>
									<g>
										<path class="st4" d="M125.2,64.7l-0.5,2.4c-0.2,0.9-0.3,1.8-0.3,2.5c0,1.6,0.4,2.6,0.8,3.2c1.1-0.9,4.8-3.8,4.8-3.8l0.3,2
											c1.6,8.8,11.4,8.8,11.9,8.8l0.6,0l0.4,0.5c0.9,1,1.2,2.3,1.2,3.6c0,1.9-0.7,3.8-1.3,5.2c1.5-0.3,2.7-0.9,3.5-1.8
											c1.3-1.5,1.5-3.5,1.5-4.9c0-0.9-0.1-1.5-0.1-1.5l-0.1-0.8l0.6-0.4c5.1-3.5,5.6-7.7,5.6-9.2l0-0.6v-0.1v-0.1V69
											c0-5-4.1-7.2-6.6-8.1c0.1,0.7,0.2,1.3,0.2,1.8c0,1-0.2,1.9-0.6,2.7c-1.2,2.5-3.8,3.3-3.9,3.3c-5.1,1.2-7.6-2.7-8.2-4.9
											c-0.4-1-0.5-1.9-0.5-2.7c0-4.5,4.2-7.5,6.8-8.5l0.1,0h0c8.4-2.9,14.5,2.4,14.8,2.6c5,4.5,6.5,9.8,6.5,14.4
											c0,7-3.4,12.8-3.5,12.8l-12.2,19.4c-8.1,14.4-10.4,24.1-10.4,30.6c0,6.4,2.3,9.5,3.6,10.8c1.2-2.1,1.5-4.9,1.5-7.1
											c0-1.9-0.2-3.3-0.2-3.3l-0.2-1.3l1.3-0.1c2.7-0.2,2.8-3.9,2.8-4.5l0-1l0.9-0.2c2-0.5,2.4-2.8,2.4-4.4
											c0-1.1-0.2-1.9-0.2-1.9c-0.3-1.5-0.4-2.9-0.4-4.2c0-6.6,3-11.3,3.1-11.5l10.1-16.3c7.2-11.3,6.8-19.1,6.8-19.2l0,0v-0.1
											c0.1-11.1-7.9-17.4-8-17.4c-10-8.3-25.9-0.7-26-0.6c-6.4,2.9-11.2,3.1-13.6,3.1c0.5,2.6,2.4,3.7,2.5,3.7l1.4,0.8l-1.2,1.1
											c-2.3,2.2-2.8,5.5-2.8,7.7v0.7C121.5,66.6,125.2,64.7,125.2,64.7z"/>
										<path class="st4" d="M50.8,103.7c0.1,0.2,3.1,4.9,3.1,11.5c0,1.3-0.1,2.7-0.4,4.2c0,0-0.2,0.9-0.2,1.9
											c0,1.7,0.4,3.9,2.4,4.4l0.9,0.2l0,1c0,0.6,0.1,4.3,2.8,4.5l1.3,0.1l-0.2,1.3c0,0-0.2,1.4-0.2,3.3c0,2.1,0.3,4.9,1.5,7.1
											c1.3-1.2,3.6-4.4,3.6-10.8c0-6.4-2.3-16.2-10.4-30.6L42.8,82.5c-0.1-0.1-3.5-5.8-3.5-12.8c0-4.7,1.5-9.9,6.5-14.4
											c0.3-0.2,6.4-5.4,14.8-2.6h0l0,0c2.6,1.1,6.8,4.1,6.8,8.5c0,0.9-0.2,1.8-0.5,2.7c-0.6,2.2-3.1,6.1-8.3,4.9
											c-0.1,0-2.7-0.8-3.9-3.3c-0.4-0.8-0.6-1.7-0.6-2.7c0-0.6,0.1-1.2,0.2-1.8c-2.5,0.9-6.6,3.1-6.6,8.1l0,0.5l0,0.1l0,0.1
											l0,0.6c0,1.5,0.5,5.8,5.6,9.2l0.6,0.4l-0.1,0.8c0,0-0.1,0.6-0.1,1.5c0,1.4,0.2,3.4,1.5,4.9c0.8,1,2,1.6,3.5,1.8
											c-0.7-1.4-1.4-3.3-1.4-5.2c0-1.3,0.3-2.5,1.2-3.6l0.4-0.5l0.6,0c0.4,0,10.3,0,11.8-8.8l0.3-2c0,0,3.7,2.9,4.8,3.8
											c0.4-0.6,0.8-1.6,0.8-3.2c0-0.7-0.1-1.5-0.3-2.5l-0.5-2.4c0,0,3.8,1.9,5.1,2.5l0-0.7c0-2.2-0.4-5.5-2.8-7.7l-1.2-1.1
											L79,57c0.1-0.1,2-1.2,2.5-3.7c-2.3,0.1-7.2-0.2-13.6-3.1c-0.2-0.1-16-7.7-26,0.6c-0.1,0.1-8.1,6.3-8,17.4v0.1l0,0
											c0,0.1-0.4,7.8,6.8,19.2L50.8,103.7z"/>
									</g>
								</g>
							</g>
						</g>
					</g>
					<path class="st3" d="M107,10.9c-0.4-0.4-1.1-0.7-1.6-1c-0.9-0.5-1.8-0.8-2.8-1V15c1-0.3,2.9-1.1,4.5-2.4
						c0.3-0.2,0.6-0.5,0.6-0.9C107.7,11.5,107.4,11.2,107,10.9z"/>
					<path class="st3" d="M108,18.6v-4.1c-0.9,0.7-2.6,1.6-5.7,2.7c-0.1,0-10.1,2.8-13.1,9.9l15.3-4.3C104.7,22.6,108,21.8,108,18.6
						z"/>
				</g>
			</g>
		</g>
	</g>
	<g>
		<g>
			<path class="st0" d="M34.4,131.4c1-2.1,0.1-4.5-2-5.5c-2.1-1-4.5-0.1-5.5,2c-0.5,1.1-0.5,2.4-0.1,3.7l-2,0.6
				c-0.6-1.7-0.6-3.7,0.1-5.3c1.5-3.3,5.2-4.7,8.4-3.2c3.2,1.5,4.5,5.2,2.9,8.6c-0.7,1.6-2.2,2.9-3.8,3.5l-1-2
				C32.8,133.4,33.9,132.5,34.4,131.4z"/>
			<path class="st0" d="M33.2,140.5l-9.8-2.9l-1.5,5.1l-2-0.6l2.1-7.4l11.9,3.4L33.2,140.5z"/>
			<path class="st0" d="M20.4,151.2c-0.2,1.9,0.8,3.2,2.8,3.4l7.2,0.9l-0.3,2.4l-7.2-0.9c-3.2-0.4-5-2.7-4.6-6
				c0.4-3.4,2.7-5.2,5.9-4.8l7.2,0.9l-0.3,2.4l-7.2-0.9C21.9,148.2,20.6,149.3,20.4,151.2z"/>
			<path class="st0" d="M27.4,170.2c-1.4,0.1-2.4-0.7-2.8-2c-0.2,1.7-1.3,2.7-3,2.8c-2.1,0.1-3.5-1.6-3.7-4.4l-0.3-5.6l12.4-0.7
				l0.3,5.5C30.4,168.4,29.3,170.1,27.4,170.2z M21.7,168.5c1-0.1,1.6-1,1.5-2.5l-0.2-3l-3.3,0.2l0.2,3
				C20,167.7,20.7,168.5,21.7,168.5z M26.8,167.8c0.9-0.1,1.4-0.8,1.4-2l-0.2-3l-3,0.2l0.2,3C25.3,167.1,25.9,167.8,26.8,167.8z"/>
			<path class="st0" d="M29.5,190.7c-3.4,1.1-6.7-0.7-7.9-4.3l-1.5-4.8l11.8-3.8l1.6,4.9C34.6,186.2,33,189.6,29.5,190.7z
				 M28.8,188.4c2.3-0.7,3.4-2.9,2.7-5.1l-0.8-2.6l-7.8,2.5l0.9,2.7C24.4,188,26.5,189.1,28.8,188.4z"/>
			<path class="st0" d="M40.5,198.3l-1.8,1l-3.1-5.9l-2.7,1.4l2.8,5.3l-1.8,1l-2.8-5.3l-2.8,1.4l3.2,6.1l-1.8,1l-4.3-8.2l10.9-5.8
				L40.5,198.3z"/>
			<path class="st0" d="M44.4,210.8c-2.2,1.7-4.6,1.3-6.5-1.2l-1.6-2.1l-2.9,2.2l-1.4-1.9l9.9-7.5l3.1,4
				C46.7,206.8,46.6,209.2,44.4,210.8z M43,209.1c1.2-0.9,1.2-2.2,0.1-3.6l-1.6-2.1l-3.7,2.8l1.6,2.1C40.5,209.7,41.7,210,43,209.1z
				"/>
			<path class="st0" d="M53.7,222.3c-2.4,2.6-6.4,2.7-9.1,0.2c-2.8-2.5-3-6.5-0.6-9.1c2.4-2.6,6.3-2.7,9.1-0.1
				C55.8,215.7,56.1,219.6,53.7,222.3z M45.7,215c-1.6,1.7-1.4,4.4,0.3,5.9c1.7,1.5,4.3,1.4,5.9-0.3s1.4-4.3-0.2-5.9
				C50,213.2,47.3,213.2,45.7,215z"/>
			<path class="st0" d="M59.3,233.2l0.1-4.2c-0.1-0.1-0.2-0.1-0.4-0.2l-2.4-1.5l-1.9,3.1l-2-1.3l6.6-10.5l4.4,2.7
				c2.7,1.7,3.4,4,2,6.3c-1,1.6-2.5,2.4-4.2,2.1l0.1,4.9L59.3,233.2z M57.8,225.5l2.4,1.5c1.5,0.9,2.7,0.8,3.6-0.5
				c0.8-1.3,0.4-2.4-1.1-3.4l-2.4-1.5L57.8,225.5z"/>
			<path class="st0" d="M78.1,228.3l-0.8,1.9l-3.6-1.5l-4,9.5l-2.2-0.9l4-9.5l-3.6-1.5l0.8-1.9L78.1,228.3z"/>
			<path class="st0" d="M82,229.4l-3.5,11.9l-2.3-0.7l3.5-11.9L82,229.4z"/>
			<path class="st0" d="M85.9,230.4l2,10.2l5.2-9l2.4,0.4l-6.9,11.4l-2.4-0.4l-2.8-13L85.9,230.4z"/>
			<path class="st0" d="M109,237.9c0.1,3.5-2.7,6.4-6.5,6.4c-3.7,0.1-6.7-2.6-6.7-6.2c-0.1-3.6,2.7-6.3,6.5-6.4
				C106,231.7,108.9,234.4,109,237.9z M98.2,238.1c0.1,2.3,2,4.1,4.3,4.1c2.3,0,4.1-1.9,4.1-4.2s-1.9-4.1-4.2-4.1
				C100.1,234,98.2,235.8,98.2,238.1z"/>
			<path class="st0" d="M125.7,234.1l2-0.6l1.3,4.5c-0.9,1.3-2.6,2.4-4.2,2.9c-3.6,1-7.1-0.8-8-4.2c-1-3.4,1-6.8,4.7-7.9
				c1.7-0.5,3.7-0.4,5.1,0.3l-0.8,2c-1.1-0.6-2.6-0.7-3.8-0.4c-2.3,0.7-3.6,2.9-2.9,5.2c0.7,2.3,3,3.5,5.3,2.8
				c0.8-0.2,1.7-0.8,2.3-1.5L125.7,234.1z"/>
			<path class="st0" d="M137.5,233.5c1.7-0.9,2.2-2.4,1.3-4.2l-3.3-6.4l2.1-1.1l3.3,6.4c1.5,2.9,0.5,5.6-2.5,7.1
				c-3,1.5-5.8,0.7-7.3-2.2l-3.3-6.4l2.1-1.1l3.3,6.4C134.2,233.9,135.8,234.4,137.5,233.5z"/>
			<path class="st0" d="M151.7,223.6l-4.8,3.6l0.7,2.8l-2,1.5l-3.1-13.1l2-1.5l11.7,6.6l-2,1.5L151.7,223.6z M149.8,222.5l-4.9-2.9
				l1.4,5.5L149.8,222.5z"/>
			<path class="st0" d="M161.9,208.4c2.7,2.4,2.7,6.2,0.1,9l-3.4,3.7l-9.1-8.4l3.5-3.8C155.5,206.2,159.2,206,161.9,208.4z
				 M160.3,210.2c-1.8-1.6-4.2-1.5-5.8,0.2l-1.9,2l6,5.5l1.9-2.1C162.2,214.2,162.1,211.9,160.3,210.2z"/>
			<path class="st0" d="M170.7,201.5l-3.2,5.1l1.6,2.3l-1.3,2.1l-7.6-11.2l1.3-2.1l13.3,2.1l-1.4,2.1L170.7,201.5z M168.5,201.1
				l-5.5-0.9l3.2,4.6L168.5,201.1z"/>
			<path class="st0" d="M165.6,189.8l9.4,4l2.1-4.9l2,0.8l-3,7.1l-11.4-4.9L165.6,189.8z"/>
			<path class="st0" d="M179.7,177.8l-1.5,5.9l2.3,1.7l-0.6,2.4l-10.7-8.3l0.6-2.4l13.3-2.2l-0.6,2.5L179.7,177.8z M177.6,178.2
				L172,179l4.5,3.4L177.6,178.2z"/>
			<path class="st0" d="M183.7,169.5c-0.1,1.6-0.9,2.8-2.2,3.6l-1.7-1.3c1-0.8,1.5-1.7,1.6-2.5c0.1-1-0.5-1.7-1.6-1.8l-6.3-0.6
				l-0.4,4.2l-2.1-0.2l0.6-6.6l8.4,0.8C182.6,165.5,184,167.1,183.7,169.5z"/>
			<path class="st0" d="M181.1,153.6l0.3,6l2.7,0.9l0.1,2.4l-12.7-4.7l-0.1-2.4l12.1-6l0.1,2.5L181.1,153.6z M179.1,154.6l-5.1,2.4
				l5.3,1.9L179.1,154.6z"/>
			<path class="st0" d="M181.1,139l-3.1,2.9c0.1,0.1,0.1,0.3,0.1,0.4l0.6,2.7l3.5-0.8l0.5,2.3l-12,2.9l-1.2-5
				c-0.7-3.1,0.3-5.2,3-5.9c1.9-0.4,3.4,0.1,4.5,1.5l3.4-3.6L181.1,139z M176.8,145.6l-0.6-2.7c-0.4-1.7-1.4-2.5-2.9-2.1
				c-1.5,0.4-2,1.5-1.6,3.2l0.6,2.7L176.8,145.6z"/>
			<path class="st0" d="M173.5,126.1l2.4,5.5l2.8-0.1l1,2.2h-13.5l-1-2.2l9.2-9.9l1,2.3L173.5,126.1z M172,127.7l-3.9,4.1l5.6-0.1
				L172,127.7z"/>
		</g>
	</g>
</g>
</svg>
